<svg xmlns="http://www.w3.org/2000/svg" viewBox="0 0 512 512"><defs><linearGradient id="g" x1="0" x2="1" y1="0" y2="1"><stop stop-color="#38bdf8"/><stop offset=".45" stop-color="#a78bfa"/><stop offset=".75" stop-color="#fb7185"/><stop offset="1" stop-color="#fbbf24"/></linearGradient></defs><rect width="512" height="512" rx="116" fill="#070a11"/><path d="M90 350c34-126 86-190 166-190s135 60 166 180c-50-38-103-56-160-56-65 0-122 22-172 66z" fill="url(#g)"/><rect x="151" y="218" width="70" height="70" rx="14" fill="#f8fafc"/><rect x="291" y="218" width="70" height="70" rx="14" fill="#f8fafc"/><rect x="176" y="241" width="22" height="22" fill="#070a11"/><rect x="314" y="241" width="22" height="22" fill="#070a11"/><path d="M177 350h158" stroke="#f8fafc" stroke-width="22" stroke-linecap="round"/><path d="M128 137l60 46M384 137l-60 46" stroke="#38bdf8" stroke-width="20" stroke-linecap="round"/></svg>